<?xml version="1.0" encoding="UTF-8"?>
<svg version="1.1" xmlns="http://www.w3.org/2000/svg" width="1000" height="306">
<path d="M0 0 C0.66 0 1.32 0 2 0 C2 98.67 2 197.34 2 299 C-96.01 299 -194.02 299 -295 299 C-291.46920641 294.88074081 -288.13275879 291.00810416 -284.32739258 287.21386719 C-283.45661575 286.34316589 -282.58583893 285.4724646 -281.68867493 284.57537842 C-280.30557381 283.20001923 -280.30557381 283.20001923 -278.89453125 281.796875 C-277.92358254 280.82779621 -276.95285796 279.85849282 -275.98234558 278.88897705 C-273.44583014 276.35624974 -270.90632709 273.82653943 -268.3661499 271.29748535 C-265.77938552 268.7209847 -263.19547632 266.14162413 -260.61132812 263.5625 C-256.07339803 259.03410019 -251.53300797 254.5081783 -246.99079895 249.98406982 C-245.3255003 248.32440007 -243.66181704 246.66315465 -242 245 C-241.67 245.33 -241.34 245.66 -241 246 C-238.59712319 246.11004251 -236.22236544 246.15495637 -233.81846619 246.15821838 C-232.67787344 246.16562535 -232.67787344 246.16562535 -231.51423842 246.17318195 C-228.94691322 246.18863294 -226.37961317 246.19693801 -223.81225586 246.20532227 C-221.97961706 246.21489483 -220.14698051 246.22490453 -218.31434631 246.23532104 C-213.32284344 246.2624436 -208.33133103 246.28341323 -203.33979487 246.30332303 C-198.1293899 246.32513741 -192.91901454 246.35254827 -187.70863342 246.37937927 C-177.83471121 246.42936786 -167.96077262 246.47428373 -158.08681828 246.51740164 C-146.84877897 246.56672143 -135.61076936 246.621659 -124.37275875 246.67708123 C-101.24853352 246.79099589 -78.12427982 246.89781417 -55 247 C-53.85369433 244.70738866 -53.87330682 243.42119544 -53.87060547 240.87329102 C-53.86745331 240.02223282 -53.86430115 239.17117462 -53.86105347 238.29432678 C-53.8630777 237.37348801 -53.86510193 236.45264923 -53.8671875 235.50390625 C-53.86623077 234.55942123 -53.86527405 233.61493622 -53.86428833 232.64183044 C-53.86360707 230.64199761 -53.86545758 228.64216258 -53.86962891 226.64233398 C-53.87497199 223.57856274 -53.86968514 220.5149385 -53.86328125 217.45117188 C-53.86394216 215.51041634 -53.86522358 213.5696609 -53.8671875 211.62890625 C-53.86415115 210.25068443 -53.86415115 210.25068443 -53.86105347 208.84461975 C-53.86420563 207.99040939 -53.86735779 207.13619904 -53.87060547 206.25610352 C-53.87140106 205.50490738 -53.87219666 204.75371124 -53.87301636 203.97975159 C-53.92917957 201.78770401 -53.92917957 201.78770401 -55 199 C-56.64034193 198.27095914 -58.31301918 197.61344757 -60 197 C-64.01239438 194.89349295 -66.97096832 192.37520673 -70 189 C-70 188.34 -70 187.68 -70 187 C-70.8971875 186.8453125 -70.8971875 186.8453125 -71.8125 186.6875 C-74.31803315 185.90004672 -75.32759243 184.99096139 -77 183 C-77.33 182.34 -77.66 181.68 -78 181 C-80.28115011 179.71027282 -82.61628866 178.56795968 -84.96875 177.4140625 C-87.40923246 175.71511125 -87.46993958 174.8250473 -88 172 C-89.64991582 171.29289322 -91.3207762 170.63437344 -93 170 C-95.24669396 168.48110831 -97.01739181 166.89039385 -99 165 C-99 164.01 -99 163.02 -99 162 C-99.86625 162.061875 -100.7325 162.12375 -101.625 162.1875 C-107.60280725 161.8553996 -111.55254473 158.79341773 -116 155 C-115.6875 153.0625 -115.6875 153.0625 -115 151 C-114.01 150.67 -113.02 150.34 -112 150 C-112 149.34 -112 148.68 -112 148 C-109.12145325 145.2143096 -106.21306841 143.58562567 -102.5625 142.0625 C-95.00082388 138.78953571 -91.46483208 134.74178526 -88.17578125 127.3046875 C-87.01318094 125.02583639 -85.98297742 123.6010319 -84 122 C-83.34 122 -82.68 122 -82 122 C-82 121.34 -82 120.68 -82 120 C-80.56640625 118.58984375 -80.56640625 118.58984375 -78.5625 116.9375 C-73.77658299 112.87931634 -69.3885623 108.47999069 -65 104 C-64.34 104.33 -63.68 104.66 -63 105 C-63.66 105.99 -64.32 106.98 -65 108 C-64.55269531 107.60167969 -64.10539063 107.20335938 -63.64453125 106.79296875 C-63.03996094 106.26316406 -62.43539062 105.73335938 -61.8125 105.1875 C-61.22082031 104.66542969 -60.62914062 104.14335938 -60.01953125 103.60546875 C-58 102 -58 102 -55.41796875 101.046875 C-52.85254088 99.28777081 -52.85254088 99.28777081 -52.5221405 96.95246887 C-52.32158088 94.17357445 -52.28190889 91.43072301 -52.29296875 88.64453125 C-52.27028679 87.11937141 -52.27028679 87.11937141 -52.24714661 85.56340027 C-52.2041267 82.3128771 -52.19541761 79.06327999 -52.1875 75.8125 C-52.16436689 73.61000117 -52.13900404 71.40752455 -52.11132812 69.20507812 C-52.04833505 63.80337679 -52.01351405 58.40203941 -52 53 C-51.01 52.67 -50.02 52.34 -49 52 C-48.31883239 50.67401625 -47.65495969 49.33912286 -47 48 C-45.57303032 46.40455709 -44.08670004 44.86151455 -42.56616211 43.35498047 C-41.64858627 42.44078339 -40.73101044 41.5265863 -39.78562927 40.58468628 C-38.7828988 39.59548822 -37.7801362 38.60632273 -36.77734375 37.6171875 C-35.75075843 36.59687526 -34.72468834 35.57604438 -33.69911194 34.55471802 C-31.00266562 31.87155517 -28.30070402 29.1940218 -25.59710693 26.51806641 C-21.26496505 22.22910096 -16.93957724 17.93334977 -12.61737251 13.63437271 C-11.1057499 12.13298594 -9.59076815 10.63505022 -8.07542419 9.13742065 C-7.16100052 8.22952789 -6.24657684 7.32163513 -5.30444336 6.38623047 C-4.49551132 5.58555145 -3.68657928 4.78487244 -2.85313416 3.95993042 C-0.94500298 2.13129222 -0.94500298 2.13129222 0 0 Z " fill="#DB2C2C" transform="translate(301,3)"/>
<path d="M0 0 C98.34 0 196.68 0 298 0 C296.10521127 3.78957745 294.54923591 5.69412396 291.59790039 8.62915039 C290.68677994 9.54011978 289.77565948 10.45108917 288.83692932 11.3896637 C287.84060936 12.37576671 286.8441824 13.36176162 285.84765625 14.34765625 C284.82593336 15.36564549 283.80465374 16.3840798 282.78379822 17.40293884 C280.09815744 20.08095545 277.40656902 22.75291553 274.71368408 25.42364502 C271.9780551 28.13884754 269.24804275 30.85968401 266.51757812 33.58007812 C261.71404678 38.36448008 256.90562746 43.14391307 252.09364319 47.91981506 C250.05546517 49.83821532 250.05546517 49.83821532 248.81737614 51.60788441 C246.04378522 53.7324634 243.17992206 53.39983484 239.82833862 53.35403442 C239.09300246 53.35589213 238.3576663 53.35774984 237.60004723 53.35966384 C235.12880136 53.36226958 232.65818156 53.34339892 230.18701172 53.32470703 C228.41794467 53.32222435 226.64887531 53.32107657 224.87980652 53.32116699 C221.06560281 53.31845786 217.25158923 53.30621199 213.43743515 53.28662491 C207.4026346 53.25563938 201.36790712 53.2453317 195.33303833 53.23776245 C185.78149578 53.22325802 176.23005801 53.19431934 166.67856991 53.15951526 C149.59234356 53.09770497 132.50605569 53.05994873 115.41975033 53.02792251 C109.42519089 53.0161135 103.43069393 52.99794091 97.43616939 52.97440743 C93.6980358 52.96053187 89.95989858 52.95070772 86.22175026 52.94177246 C84.49363526 52.93672385 82.76552434 52.92991345 81.03742409 52.92116928 C68.98709311 52.85663484 68.98709311 52.85663484 57 54 C56.99668985 54.98251928 56.99337971 55.96503857 56.98996925 56.97733116 C56.90907454 80.8537054 56.81678978 104.73001474 56.71247292 128.60629845 C56.66229198 140.1525578 56.6158498 151.69880986 56.578125 163.24511719 C56.5452453 173.3056267 56.50543657 183.36608048 56.45720994 193.42652857 C56.43190483 198.7563896 56.41013552 204.08621347 56.39665604 209.41611862 C56.38387195 214.42784773 56.36185746 219.43944964 56.33261681 224.45110893 C56.32351233 226.29502047 56.31784416 228.1389525 56.31578636 229.98288536 C56.31248398 232.49153396 56.29706223 234.99981746 56.2784729 237.50839233 C56.28040763 238.24573778 56.28234237 238.98308322 56.28433573 239.74277246 C56.22824242 244.77175758 56.22824242 244.77175758 54 247 C53.01 247 52.02 247 51 247 C50.74863281 247.58910156 50.49726562 248.17820313 50.23828125 248.78515625 C48.84544599 251.27644202 47.3791428 252.62300414 45.1875 254.4375 C41.94494255 257.14067652 38.96353342 259.99216862 36 263 C35.02166264 263.97999527 34.04246553 264.95913285 33.0625 265.9375 C32.55976562 266.44023437 32.05703125 266.94296875 31.5390625 267.4609375 C29.23828125 269.76171875 29.23828125 269.76171875 26.9375 272.0625 C26.43774658 272.56241455 25.93799316 273.0623291 25.4230957 273.57739258 C24.1725549 274.82750431 22.92039114 276.07599208 21.66796875 277.32421875 C19.38977941 279.60907922 17.12499923 281.90590875 14.86328125 284.20703125 C13.34646502 285.74229703 11.82953531 287.2774507 10.3125 288.8125 C9.15524414 289.99489258 9.15524414 289.99489258 7.97460938 291.20117188 C6.86762695 292.31782227 6.86762695 292.31782227 5.73828125 293.45703125 C5.06837158 294.13741455 4.39846191 294.81779785 3.70825195 295.51879883 C2 297 2 297 0 297 C0 198.99 0 100.98 0 0 Z " fill="#FE3D3D" transform="translate(3,3)"/>
<path d="M0 0 C62.04 0 124.08 0 188 0 C188 13.53 188 27.06 188 41 C185.36 43.31 182.72 45.62 180 48 C174.32498263 53.00688306 168.8119435 58.08088726 163.59375 63.56640625 C162 65 162 65 160 65 C160 65.66 160 66.32 160 67 C158.42578125 68.55078125 158.42578125 68.55078125 156.3125 70.3125 C153.80197706 72.43644684 151.39176579 74.55501344 149.125 76.9375 C147 79 147 79 145 79 C145 79.66 145 80.32 145 81 C143.42578125 82.55078125 143.42578125 82.55078125 141.3125 84.3125 C138.80197706 86.43644684 136.39176579 88.55501344 134.125 90.9375 C132 93 132 93 130 93 C130 93.66 130 94.32 130 95 C129.01 95.66 128.02 96.32 127 97 C127 97.99 127 98.98 127 100 C128.74425966 101.77270376 128.74425966 101.77270376 131.125 103.5 C132.03894531 104.20511719 132.95289063 104.91023438 133.89453125 105.63671875 C134.91933594 106.41660156 135.94414062 107.19648438 137 108 C139.27721021 109.76271681 141.54588605 111.53618532 143.8125 113.3125 C144.40909424 113.77938232 145.00568848 114.24626465 145.62036133 114.72729492 C149.58573593 117.84557217 153.47338903 121.04034634 157.3125 124.3125 C162.47924976 128.71264342 167.65979456 133.09479182 172.875 137.4375 C173.92747925 138.32465698 173.92747925 138.32465698 175.0012207 139.22973633 C175.67886475 139.79200928 176.35650879 140.35428223 177.0546875 140.93359375 C177.64749512 141.42915771 178.24030273 141.92472168 178.85107422 142.43530273 C181.73663937 144.5363692 184.90085034 146.22905734 188 148 C188 161.86 188 175.72 188 190 C125.96 190 63.92 190 0 190 C0 127.3 0 64.6 0 0 Z M31 28 C31 72.55 31 117.1 31 163 C71.59 163 112.18 163 154 163 C154.33 162.01 154.66 161.02 155 160 C154.34 160 153.68 160 153 160 C153 159.34 153 158.68 153 158 C150.3200076 155.56364327 147.54535559 153.70970344 144.375 152 C141.1742686 150.10327028 140.07200825 148.91964799 138 146 C136.34928604 144.97388051 134.68029994 143.97691857 133 143 C127.37015504 138.74031008 127.37015504 138.74031008 126 136 C125.34 136 124.68 136 124 136 C123.67 135.01 123.34 134.02 123 133 C121.34943152 131.97364651 119.67871757 130.97963519 118 130 C115.72147101 128.20571247 113.55323217 126.28908537 111.375 124.375 C106.98358961 120.5516241 102.55587034 116.81347352 98 113.1875 C94.29864756 110.20148947 91.29953259 107.1506153 88.34765625 103.44140625 C86.26305261 101.21178671 83.79234194 100.13023364 81 99 C81.60520662 95.6108429 82.91300745 93.69569871 85 91 C85.33 90.01 85.66 89.02 86 88 C87.78515625 86.421875 87.78515625 86.421875 90.0625 84.75 C94.56657729 81.35768862 98.79321908 77.75062396 103 74 C104.2274821 72.91475832 105.45668947 71.83146532 106.6875 70.75 C107.33074219 70.18410156 107.97398437 69.61820313 108.63671875 69.03515625 C110.54013394 67.39601689 112.45923312 65.78454051 114.39453125 64.18359375 C114.98854736 63.68956055 115.58256348 63.19552734 116.19458008 62.68652344 C117.3869252 61.69653032 118.58332003 60.71139207 119.78393555 59.73144531 C121.22653102 58.53102185 122.61831399 57.27005589 124 56 C124 55.34 124 54.68 124 54 C125.02867187 53.69642578 125.02867187 53.69642578 126.078125 53.38671875 C130.01085352 51.52025 132.65535145 48.82940205 135.75 45.8125 C148.3133343 33.84333285 148.3133343 33.84333285 154 31 C154 30.01 154 29.02 154 28 C113.41 28 72.82 28 31 28 Z " fill="#FCF9F8" transform="translate(59,58)"/>
<path d="M0 0 C75.35294118 0 75.35294118 0 88 10 C94.65942303 17.12403394 96.97311249 23.36082832 97 33 C96.41510666 40.79433946 92.86161509 47.25196183 87.2734375 52.67578125 C85.89240322 53.83755179 84.45202028 54.92827075 83 56 C84.7634375 56.7734375 84.7634375 56.7734375 86.5625 57.5625 C93.64842987 61.14936007 98.36944794 66.21217364 101.28125 73.6171875 C103.79365527 81.94635716 103.69356762 90.53338244 99.80859375 98.41796875 C93.54388421 108.60879053 85.38183973 112.2463291 74 115 C69.63570326 115.85343581 65.52133829 116.12178687 61.07666016 116.11352539 C60.40190832 116.11364593 59.72715649 116.11376646 59.03195763 116.11389065 C56.86762464 116.11314972 54.7033799 116.10555922 52.5390625 116.09765625 C51.19490602 116.09618429 49.85074897 116.09516514 48.5065918 116.09460449 C43.5460524 116.08938109 38.58552532 116.07541982 33.625 116.0625 C22.52875 116.041875 11.4325 116.02125 0 116 C0 77.72 0 39.44 0 0 Z M21 17 C21 27.56 21 38.12 21 49 C26.37197463 49.09235486 31.74114217 49.17182946 37.11328125 49.21972656 C38.93661892 49.23971364 40.75989356 49.26691286 42.58300781 49.30175781 C56.86875798 49.91378706 56.86875798 49.91378706 70 45 C73.53424105 41.46575895 74.86488937 38.75643825 75.25 33.75 C74.87710975 28.15664618 73.63355001 24.43907977 69.375 20.6875 C62.62382458 17.31191229 55.70177495 16.70082605 48.24609375 16.8046875 C47.45977066 16.8075174 46.67344757 16.81034729 45.86329651 16.81326294 C43.38786641 16.82432711 40.91281801 16.84940409 38.4375 16.875 C36.7441459 16.88504766 35.05078605 16.89417035 33.35742188 16.90234375 C29.23802114 16.92250724 25.11943037 16.96167972 21 17 Z M21 66 C21 76.89 21 87.78 21 99 C27.1019133 99.06913624 33.20244945 99.12879071 39.30444336 99.16479492 C41.37708154 99.17981521 43.44968829 99.20023747 45.5222168 99.22631836 C48.51358836 99.26300024 51.5045371 99.27979435 54.49609375 99.29296875 C55.41208847 99.30845261 56.32808319 99.32393646 57.27183533 99.33988953 C64.62294293 99.34178188 71.10973972 98.33680618 76.9375 93.625 C80.68569081 88.85457533 81.61723374 85.06946513 81 79 C79.85122815 75.11744197 78.44772559 72.03239448 75.09375 69.640625 C70.31706387 67.18098811 65.89403817 65.87099414 60.50683594 65.88647461 C59.62622498 65.88655014 58.74561401 65.88662567 57.83831787 65.88670349 C56.42561615 65.89444542 56.42561615 65.89444542 54.984375 65.90234375 C54.01340881 65.9037587 53.04244263 65.90517365 52.04205322 65.90663147 C48.94467065 65.91222337 45.84736068 65.92477441 42.75 65.9375 C40.64843854 65.94251605 38.54687596 65.94707877 36.4453125 65.95117188 C31.2968246 65.96133872 26.14849347 65.9809158 21 66 Z " fill="#000000" transform="translate(627,36)"/>
<path d="M0 0 C13.08234714 9.68368945 20.54182601 21.64882195 24.6171875 37.3828125 C27.22356654 55.20193453 23.40144569 72.05758714 13.03515625 86.79296875 C1.59576586 100.53301866 -14.51969817 107.22122557 -32 109 C-49.16638685 110.53849693 -66.72575483 104.76290149 -80 94 C-92.50193368 83.28405684 -98.84005122 68.61413565 -100.22265625 52.38671875 C-100.77045377 36.31005232 -95.72681565 21.27157133 -85.25 9.0625 C-63.46875852 -13.34388285 -26.08955598 -17.10115761 0 0 Z M-68.75 21.9140625 C-76.97916812 32.24166849 -78.95478227 43.00958209 -78 56 C-75.61997096 68.26734967 -69.95230628 76.60632066 -60 84 C-49.69467677 90.55051239 -37.76807765 91.40377242 -26 88.9375 C-15.57948034 86.03164821 -7.64885425 80.21979209 -2 71 C3.61262445 60.30683476 4.73388236 48.49106961 2.31640625 36.65234375 C-1.07053807 26.66015533 -8.02731663 17.79075043 -17.37109375 12.7109375 C-34.84964552 4.73222257 -55.58998928 7.52030077 -68.75 21.9140625 Z " fill="#000000" transform="translate(579,45)"/>
<path d="M0 0 C31.35 0 62.7 0 95 0 C95 16 95 16 92.98046875 19.9140625 C91.59794922 21.25597656 91.59794922 21.25597656 90.1875 22.625 C89.16623317 23.67805209 88.1480966 24.73414732 87.1328125 25.79296875 C86.60977539 26.31681152 86.08673828 26.8406543 85.54785156 27.38037109 C82.99135627 30.0554168 80.79878338 32.99465707 78.5625 35.9375 C74.3653456 41.35797959 69.97461639 46.57414821 65.48071289 51.74975586 C61.54817038 56.30205641 57.82889738 60.99213849 54.14672852 65.74780273 C50.44650472 70.49897767 46.57374073 75.07958599 42.5859375 79.59179688 C37.4005804 85.52319538 32.8438436 91.70300331 28 98 C51.1 98 74.2 98 98 98 C98 103.94 98 109.88 98 116 C65.33 116 32.66 116 -1 116 C-1 101.47465808 -0.989736 99.12761538 8 90 C9.41486839 88.30739818 10.81064062 86.5986623 12.1875 84.875 C16.72725768 79.32552388 21.28687401 73.79248583 25.84643555 68.25927734 C29.07114546 64.34508068 32.29116366 60.42723253 35.5 56.5 C39.32120514 51.82330118 43.15949973 47.16085065 47 42.5 C48.78461795 40.33310062 50.56910484 38.16609342 52.35351562 35.99902344 C53.39351036 34.73634893 54.43383163 33.47394324 55.47460938 32.21191406 C56.73437556 30.68401582 57.99226369 29.15456964 59.25 27.625 C59.93578125 26.79226562 60.6215625 25.95953125 61.328125 25.1015625 C63.12584296 22.90214187 63.12584296 22.90214187 65 20 C43.55 19.67 22.1 19.34 0 19 C0 12.73 0 6.46 0 0 Z " fill="#000000" transform="translate(874,36)"/>
<path d="M0 0 C6.93 0 13.86 0 21 0 C21.01458252 2.15378174 21.02916504 4.30756348 21.04418945 6.52661133 C21.09474926 13.67925515 21.1613807 20.83168614 21.23571491 27.98412037 C21.28025492 32.31646135 21.31954607 36.64871183 21.34643555 40.98120117 C21.37263319 45.17001231 21.41314895 49.35847206 21.46318626 53.54706383 C21.47974456 55.13722009 21.49132701 56.72743697 21.49761391 58.31766701 C21.55410199 71.30426508 22.08843416 82.92387307 31.625 92.6875 C38.54857991 98.06672249 47.54184705 98.85912569 56 98 C63.45066687 96.77477923 69.20430147 93.9364767 74 88 C78.06219588 80.55852813 79.10217366 73.10871591 79.20532227 64.70947266 C79.21522186 64.00633942 79.22512146 63.30320618 79.23532104 62.57876587 C79.26669873 60.27389802 79.29159869 57.96900962 79.31640625 55.6640625 C79.33699632 54.05837494 79.35799331 52.45269254 79.37937927 50.84701538 C79.434388 46.63523565 79.48389013 42.42340873 79.53222656 38.21154785 C79.58259706 33.90791662 79.63820171 29.60435332 79.69335938 25.30078125 C79.8006814 16.86724356 79.90169911 8.43364767 80 0 C86.93 0 93.86 0 101 0 C101.09096592 9.50243984 101.16409523 19.00458272 101.20724869 28.50736237 C101.22797738 32.92157889 101.25601973 37.33547787 101.30175781 41.74951172 C101.3457487 46.02247666 101.36924721 50.2951394 101.37950897 54.5683136 C101.3868062 56.18513231 101.40105048 57.80193761 101.42292023 59.41862488 C101.64426085 76.48545435 99.2552152 92.13739733 87.375 105.25 C77.16688271 114.78399634 63.39482639 117.93957066 49.75 118.3125 C35.7580948 117.75095197 22.18713487 114.05000036 12 104 C3.59176761 94.24044455 -0.17804517 83.03845913 -0.11352539 70.2722168 C-0.11367142 69.51070816 -0.11381744 68.74919952 -0.1139679 67.96461487 C-0.11327387 65.45945338 -0.1055054 62.95436718 -0.09765625 60.44921875 C-0.09579026 58.70758607 -0.09436721 56.96595286 -0.09336853 55.22431946 C-0.08955762 50.64914491 -0.07973953 46.0740023 -0.06866455 41.49884033 C-0.05841975 36.82670524 -0.05386434 32.15456497 -0.04882812 27.48242188 C-0.03811595 18.32159832 -0.02053072 9.16080682 0 0 Z " fill="#000000" transform="translate(751,36)"/>
<path d="M0 0 C37.29 0 74.58 0 113 0 C113 0.99 113 1.98 113 3 C112.34 3 111.68 3 111 3 C111 3.66 111 4.32 111 5 C110.01 5 109.02 5 108 5 C107.71125 6.134375 107.4225 7.26875 107.125 8.4375 C104.91558491 14.4146616 100.0619324 18.34549273 95 22 C94.27683594 22.16628906 93.55367188 22.33257812 92.80859375 22.50390625 C91.91333984 22.74947266 91.91333984 22.74947266 91 23 C90.31162386 24.32225584 89.64848565 25.65773006 89 27 C86.75 29.04296875 86.75 29.04296875 84 31.1875 C78.46751994 35.59178805 73.22930625 40.24369632 68 45 C52.89208633 58.55395683 52.89208633 58.55395683 48 61 C46.82440785 58.6488157 46.84483537 57.17282086 46.79467773 54.55029297 C46.7647599 53.16908768 46.7647599 53.16908768 46.73423767 51.75997925 C46.71752518 50.76410797 46.70081268 49.76823669 46.68359375 48.7421875 C46.66281265 47.72399933 46.64203156 46.70581116 46.62062073 45.6567688 C46.55510534 42.39624945 46.49623098 39.13564794 46.4375 35.875 C46.39431668 33.66796017 46.35070245 31.46092872 46.30664062 29.25390625 C46.19860904 23.83602058 46.09955024 18.41807479 46 13 C35.11 13 24.22 13 13 13 C13.00523682 15.81611816 13.01047363 18.63223633 13.01586914 21.53369141 C13.03244419 30.84157751 13.04348694 40.14946427 13.05181217 49.45736122 C13.05702916 55.10032558 13.06410535 60.74327481 13.07543945 66.38623047 C13.08631036 71.83269779 13.09228577 77.27915056 13.09487724 82.7256279 C13.0967239 84.8028219 13.10032994 86.88001511 13.10573006 88.95720291 C13.11299622 91.8681332 13.11398858 94.77900349 13.11352539 97.68994141 C13.11712067 98.54733917 13.12071594 99.40473694 13.12442017 100.28811646 C13.10488415 111.64562588 13.10488415 111.64562588 10.0625 115.375 C8 117 8 117 6 117 C5.67 117.99 5.34 118.98 5 120 C3.35 120.99 1.7 121.98 0 123 C0 82.41 0 41.82 0 0 Z " fill="#FA4342" transform="translate(92,89)"/>
<path d="M0 0 C32.34 0 64.68 0 98 0 C98 6.27 98 12.54 98 19 C85.46 19 72.92 19 60 19 C60 51.01 60 83.02 60 116 C52.74 116 45.48 116 38 116 C38 83.99 38 51.98 38 19 C25.46 19 12.92 19 0 19 C0 12.73 0 6.46 0 0 Z " fill="#000000" transform="translate(376,36)"/>
<path d="M0 0 C3 1 3 1 4 3 C5.051875 3.556875 6.10375 4.11375 7.1875 4.6875 C9.97120982 6.21713449 11.77786018 7.70363877 13.75 10.1875 C17.05278676 14.30719944 21.00177458 17.38016094 25.1171875 20.66015625 C28.77349849 23.62781246 32.24293488 26.77319607 35.7109375 29.95703125 C39.25502396 33.12009818 42.6345013 36.05977835 47 38 C47 38.66 47 39.32 47 40 C47.66 40 48.32 40 49 40 C50.33895632 41.66215268 51.67130142 43.32963607 53 45 C55.25829318 46.97600654 57.27994862 48.66247592 60 49.9375 C65.79571326 53.01647267 67.42376064 56.98877483 70 63 C32.05 63 -5.9 63 -45 63 C-45 62.01 -45 61.02 -45 60 C-43.34928604 58.97388051 -41.68029994 57.97691857 -40 57 C-38.19492273 54.91721854 -36.91179282 52.84276112 -35.5625 50.4375 C-33.95735947 47.93348077 -32.46754175 46.61666528 -30 45 C-29.67 46.32 -29.34 47.64 -29 49 C-19.43 49.33 -9.86 49.66 0 50 C0 33.5 0 17 0 0 Z " fill="#D93030" transform="translate(136,154)"/>
<path d="M0 0 C5.61 0 11.22 0 17 0 C17 9.24 17 18.48 17 28 C27.23 28 37.46 28 48 28 C48 18.76 48 9.52 48 0 C53.61 0 59.22 0 65 0 C65 23.1 65 46.2 65 70 C59.39 70 53.78 70 48 70 C48 60.43 48 50.86 48 41 C37.77 41 27.54 41 17 41 C17 50.57 17 60.14 17 70 C11.39 70 5.78 70 0 70 C0 46.9 0 23.8 0 0 Z " fill="#FF3D3D" transform="translate(337,204)"/>
<path d="M0 0 C8.58 0 17.16 0 26 0 C26 32.67 26 65.34 26 99 C17.42 99 8.84 99 0 99 C0 66.33 0 33.66 0 0 Z " fill="#FDFAF9" transform="translate(109,103)"/>
<path d="M0 0 C6.93 0 13.86 0 21 0 C21 38.28 21 76.56 21 116 C14.07 116 7.14 116 0 116 C0 77.72 0 39.44 0 0 Z " fill="#000000" transform="translate(339,36)"/>
<path d="M0 0 C0.886875 0.556875 1.77375 1.11375 2.6875 1.6875 C10.42477068 9.42477068 11 17.20420638 11 28 C-2.2 28.33 -15.4 28.66 -29 29 C-25.79476521 34.60526039 -25.79476521 34.60526039 -21 37 C-14.33669332 37.7145886 -8.8161758 37.57918511 -3 34 C0 34 0 34 1.82421875 35.53125 C2.43910156 36.1809375 3.05398438 36.830625 3.6875 37.5 C4.31011719 38.1496875 4.93273437 38.799375 5.57421875 39.46875 C6.04472656 39.9740625 6.51523437 40.479375 7 41 C5.54663682 44.80797391 3.82091882 45.96067277 0.1875 47.6875 C-0.66457031 48.10386719 -1.51664063 48.52023437 -2.39453125 48.94921875 C-11.64478148 52.67982941 -21.88015851 51.61790119 -31 48 C-38.3761173 43.97324208 -42.40511265 38.25303292 -45.3125 30.5 C-47.07042284 21.55057466 -45.53161092 14.78193174 -41.3125 6.8125 C-36.4800922 0.93524728 -30.75465052 -2.72436206 -23.4375 -4.6875 C-14.90992135 -5.46273442 -7.25752549 -4.7140002 0 0 Z M-28.375 12.5 C-30.27249418 14.92226929 -30.27249418 14.92226929 -30 18 C-21.42 18 -12.84 18 -4 18 C-4.96018801 13.19905997 -5.3615881 11.87437057 -9.125 9.015625 C-16.22897325 5.16763949 -22.93800738 6.77684987 -28.375 12.5 Z " fill="#FF3D3D" transform="translate(567,224)"/>
<path d="M0 0 C5.28 0 10.56 0 16 0 C19.81422179 7.40852449 23.15170172 14.91733485 26.3125 22.625 C26.76689453 23.72457031 27.22128906 24.82414062 27.68945312 25.95703125 C28.79626554 28.63668237 29.89971104 31.31766529 31 34 C33.60505566 31.39494434 34.63685953 28.41251973 36.00390625 25.05859375 C36.28725327 24.37571793 36.57060028 23.6928421 36.86253357 22.98927307 C37.7672255 20.80725897 38.66527019 18.62259191 39.5625 16.4375 C40.46415376 14.24920863 41.36722401 12.06152991 42.2731781 9.87501526 C42.83681351 8.51394244 43.3978058 7.15177159 43.95594788 5.78843689 C45.88826809 1.11173191 45.88826809 1.11173191 47 0 C49.53049402 -0.07313567 52.03304837 -0.09247527 54.5625 -0.0625 C55.62887695 -0.05573242 55.62887695 -0.05573242 56.71679688 -0.04882812 C58.47790013 -0.03700864 60.23896036 -0.01907263 62 0 C58.69403858 8.0114663 55.35519405 16.00903819 52 24 C51.69827881 24.71895447 51.39655762 25.43790894 51.08569336 26.1786499 C49.12575037 30.84540246 47.15623843 35.50797934 45.17703247 40.16659546 C44.52187859 41.71150589 43.8690728 43.25741438 43.21871948 44.80435181 C34.53561233 65.44299037 34.53561233 65.44299037 28.4375 70.4375 C27.60025391 71.14712891 27.60025391 71.14712891 26.74609375 71.87109375 C21.65819218 75.16058716 14.79477446 74.55705073 9 74 C5.80401488 72.97351951 2.91875334 71.65101199 0 70 C1.31061591 65.76570244 2.94356259 61.92592596 5 58 C6.19625 58.515625 7.3925 59.03125 8.625 59.5625 C12.47562079 60.98437234 15.02344715 61.44601922 19 60 C20.38001751 58.3717779 21.71937515 56.7074998 23 55 C16.86393 40.10924213 10.56943361 25.29620696 4.11645508 10.54052734 C3.84224228 9.911772 3.56802948 9.28301666 3.2855072 8.63520813 C2.5366617 6.91836988 1.78573045 5.20244182 1.03466797 3.48657227 C0 1 0 1 0 0 Z " fill="#FF3D3D" transform="translate(610,220)"/>
<path d="M0 0 C5.91587773 5.38980136 9.57205755 10.20926765 10.30078125 18.3671875 C10.32868392 26.7193865 9.74564748 32.38731223 5.4375 39.625 C-1.26293786 46.15363176 -9.46680293 49.94913697 -18.8125 50.3125 C-27.71081283 50.08295324 -35.70689868 47.46828402 -42 41 C-47.34701457 33.73085601 -49.88616763 27.12424454 -49 18 C-47.47028491 10.5847709 -44.08330479 4.02979678 -37.92578125 -0.5390625 C-26.00986984 -7.65117716 -11.58008644 -8.21875263 0 0 Z M-30.3125 12.5 C-33.21733631 16.80346121 -33.5385586 20.93177888 -33 26 C-31.38879472 30.18913372 -29.4323836 33.10392634 -26 36 C-22.27148658 37.24283781 -18.87253239 37.5280726 -15 37 C-10.60605434 34.76157485 -7.96214736 32.54392021 -6 28 C-4.59916632 21.89636753 -4.87535311 17.50474902 -8 12 C-10.83549694 8.74751822 -13.28121457 7.73309395 -17.4375 7.0625 C-23.10516816 6.67649602 -26.45197414 8.32645853 -30.3125 12.5 Z " fill="#FF3D3D" transform="translate(462,225)"/>
<path d="M0 0 C4.98624118 4.4954255 7.59067286 9.25913592 8.17398071 16.01506042 C8.22958898 18.19905206 8.22532531 20.37411478 8.1953125 22.55859375 C8.1924826 23.34774673 8.18965271 24.13689972 8.18673706 24.94996643 C8.17563057 27.44597172 8.15054455 29.94160498 8.125 32.4375 C8.11495785 34.13996874 8.10583417 35.84244316 8.09765625 37.54492188 C8.0757226 41.69675576 8.04125977 45.84831502 8 50 C3.05 50 -1.9 50 -7 50 C-7.495 48.02 -7.495 48.02 -8 46 C-9.0725 46.639375 -10.145 47.27875 -11.25 47.9375 C-17.11870432 51.43615065 -23.53787316 52.01194662 -30.1875 50.50390625 C-35.47196356 48.73240994 -39.19022031 46.02692026 -42.109375 41.14453125 C-43.74681994 37.20173619 -43.53532577 33.18347173 -43 29 C-40.8051505 24.52901027 -38.56644952 21.98541284 -34 20 C-25.52755288 17.34296037 -16.76795632 17.80418956 -8 18 C-9.60265361 13.19985858 -9.60265361 13.19985858 -12.859375 9.58203125 C-21.13869072 7.33090344 -28.54345361 9.2717268 -36 13 C-36.83819158 11.37750059 -37.6704116 9.75191503 -38.5 8.125 C-38.9640625 7.22007812 -39.428125 6.31515625 -39.90625 5.3828125 C-41 3 -41 3 -41 1 C-28.86726708 -5.17121724 -11.80720597 -8.90247193 0 0 Z M-28 31 C-28.00082535 34.57756686 -28.00082535 34.57756686 -27 38 C-22.73773282 40.84151145 -19.00103595 40.74434023 -14 40 C-11.01817819 38.68776407 -10.14388056 37.65164175 -8 35 C-7.80181128 31.3773832 -7.80181128 31.3773832 -8 28 C-10.77141717 27.91910458 -13.54047819 27.85955938 -16.3125 27.8125 C-17.09818359 27.78736328 -17.88386719 27.76222656 -18.69335938 27.73632812 C-19.45068359 27.72666016 -20.20800781 27.71699219 -20.98828125 27.70703125 C-21.68477783 27.6913208 -22.38127441 27.67561035 -23.09887695 27.65942383 C-25.62300647 28.11160833 -26.50247091 28.94410018 -28 31 Z " fill="#FF3D3D" transform="translate(933,224)"/>
<path d="M0 0 C0.495 0.99 0.495 0.99 1 2 C0.00390625 4.3828125 0.00390625 4.3828125 -1.4375 7.125 C-1.91058594 8.03507813 -2.38367188 8.94515625 -2.87109375 9.8828125 C-3.24363281 10.58148438 -3.61617187 11.28015625 -4 12 C-4.68964844 11.7834375 -5.37929688 11.566875 -6.08984375 11.34375 C-13.94971603 9.01489895 -20.95382363 7.92356739 -29 10 C-29 11.65 -29 13.3 -29 15 C-25.31274474 17.22375704 -21.42792599 17.7092335 -17.25 18.375 C-3.81909235 20.75156313 -3.81909235 20.75156313 0.359375 25.56640625 C3.05346103 29.69057219 3.6122111 33.1897699 3 38 C1.22831828 42.92133812 -1.46037165 46.39271854 -6 49 C-17.61263928 53.63023895 -29.24923448 52.78705043 -41 49 C-42.69807863 48.05432207 -44.37682028 47.06914236 -46 46 C-45.38348417 44.3509698 -44.75652258 42.70584159 -44.125 41.0625 C-43.77695312 40.14597656 -43.42890625 39.22945313 -43.0703125 38.28515625 C-42 36 -42 36 -40 35 C-38.16710972 35.58546576 -36.35740935 36.24427753 -34.5625 36.9375 C-28.19407696 39.15227047 -21.11360103 40.8205464 -14.6875 37.9765625 C-13.8521875 37.49316406 -13.8521875 37.49316406 -13 37 C-13 35.35 -13 33.7 -13 32 C-13.89460937 31.89042969 -14.78921875 31.78085938 -15.7109375 31.66796875 C-36.37278107 28.95857988 -36.37278107 28.95857988 -43 22 C-45.46204942 18.14635743 -45.18066839 14.58797299 -44.51953125 10.20703125 C-43.46388297 5.72251037 -41.64357567 3.05658436 -37.7578125 0.55859375 C-26.57976457 -5.40416434 -11.50220866 -5.96516529 0 0 Z " fill="#FF3D3D" transform="translate(853,223)"/>
<path d="M0 0 C2.13260119 1.92078527 3.40847939 3.5596684 5 6 C5 6.99 5 7.98 5 9 C1.04 10.98 -2.92 12.96 -7 15 C-8.32 13.35 -9.64 11.7 -11 10 C-14.88599145 7.5573768 -18.45061121 7.83174304 -22.84765625 8.4609375 C-26.03411511 9.25899798 -27.79603224 10.59567153 -30 13 C-32.38063746 17.08109279 -32.57198848 21.37869628 -32 26 C-30.21704684 31.15075357 -27.8926015 33.59985587 -23 36 C-19.06430061 36.68681813 -15.85225013 36.39771673 -12.1875 34.6875 C-10.29094635 33.22444433 -8.6054281 31.77442053 -7 30 C-2.38486888 31.31860889 1.09897612 33.21355437 5 36 C3.61066264 41.24860779 0.43901553 44.1445889 -4 47 C-13.0144236 51.04667592 -22.31271811 51.17427882 -31.61328125 48.03515625 C-38.85889768 44.89262212 -43.59239348 40.07733661 -47 33 C-49.82899956 25.45600118 -49.83279802 18.69397557 -47.01953125 11.23046875 C-42.98813332 2.41082041 -37.01377993 -1.60809583 -28 -5 C-18.04150928 -7.20583149 -8.45494473 -5.79635151 0 0 Z " fill="#FF3D3D" transform="translate(798,225)"/>
<path d="M0 0 C5.28 0 10.56 0 16 0 C16 4.29 16 8.58 16 13 C20.29 13 24.58 13 29 13 C29 16.96 29 20.92 29 25 C24.71 25 20.42 25 16 25 C16.11342562 29.29226439 16.24018537 33.58340085 16.375 37.875 C16.4059375 39.09832031 16.436875 40.32164062 16.46875 41.58203125 C16.50742187 42.74863281 16.54609375 43.91523438 16.5859375 45.1171875 C16.63306885 46.73536377 16.63306885 46.73536377 16.68115234 48.38623047 C16.74676322 51.15761654 16.74676322 51.15761654 19 53 C20.91180549 53.28005058 20.91180549 53.28005058 23 53.1875 C23.70125 53.18105469 24.4025 53.17460937 25.125 53.16796875 C27.09056373 53.10706133 27.09056373 53.10706133 29 52 C29.6708712 53.6232687 30.33657029 55.24867578 31 56.875 C31.37125 57.77992188 31.7425 58.68484375 32.125 59.6171875 C33 62 33 62 33 64 C24.47005131 67.31720227 17.77495001 68.24827905 9.046875 65.04296875 C4.77786259 62.86772769 2.65710877 59.64377756 0.88330078 55.20654297 C-0.05116306 51.81426876 -0.22875973 49.01977201 -0.1953125 45.5078125 C-0.18886719 44.30898437 -0.18242188 43.11015625 -0.17578125 41.875 C-0.15064453 40.01875 -0.15064453 40.01875 -0.125 38.125 C-0.11597656 36.86429688 -0.10695313 35.60359375 -0.09765625 34.3046875 C-0.07415808 31.2029296 -0.04130334 28.10156348 0 25 C-2.64 25 -5.28 25 -8 25 C-8 21.04 -8 17.08 -8 13 C-5.36 13 -2.72 13 0 13 C0 8.71 0 4.42 0 0 Z " fill="#FF3D3D" transform="translate(681,208)"/>
<path d="M0 0 C5.28 0 10.56 0 16 0 C16 4.29 16 8.58 16 13 C20.29 13 24.58 13 29 13 C29 16.96 29 20.92 29 25 C24.71 25 20.42 25 16 25 C16.11342562 29.29226439 16.24018537 33.58340085 16.375 37.875 C16.4059375 39.09832031 16.436875 40.32164062 16.46875 41.58203125 C16.50742187 42.74863281 16.54609375 43.91523438 16.5859375 45.1171875 C16.63306885 46.73536377 16.63306885 46.73536377 16.68115234 48.38623047 C16.74676322 51.15761654 16.74676322 51.15761654 19 53 C20.91180549 53.28005058 20.91180549 53.28005058 23 53.1875 C23.70125 53.18105469 24.4025 53.17460937 25.125 53.16796875 C27.09056373 53.10706133 27.09056373 53.10706133 29 52 C29.6708712 53.6232687 30.33657029 55.24867578 31 56.875 C31.37125 57.77992188 31.7425 58.68484375 32.125 59.6171875 C33 62 33 62 33 64 C24.47005131 67.31720227 17.77495001 68.24827905 9.046875 65.04296875 C4.77786259 62.86772769 2.65710877 59.64377756 0.88330078 55.20654297 C-0.05116306 51.81426876 -0.22875973 49.01977201 -0.1953125 45.5078125 C-0.18886719 44.30898437 -0.18242187 43.11015625 -0.17578125 41.875 C-0.15064453 40.01875 -0.15064453 40.01875 -0.125 38.125 C-0.11597656 36.86429688 -0.10695313 35.60359375 -0.09765625 34.3046875 C-0.07415808 31.2029296 -0.04130334 28.10156348 0 25 C-2.64 25 -5.28 25 -8 25 C-8 21.04 -8 17.08 -8 13 C-5.36 13 -2.72 13 0 13 C0 8.71 0 4.42 0 0 Z " fill="#FF3D3D" transform="translate(485,208)"/>
<path d="M0 0 C5.28 0 10.56 0 16 0 C16 24.42 16 48.84 16 74 C10.72 74 5.44 74 0 74 C0 49.58 0 25.16 0 0 Z " fill="#FF3D3D" transform="translate(588,200)"/>
<path d="M0 0 C5.28 0 10.56 0 16 0 C16 17.82 16 35.64 16 54 C10.72 54 5.44 54 0 54 C0 36.18 0 18.36 0 0 Z " fill="#FF3D3D" transform="translate(955,220)"/>
<path d="M0 0 C5.28 0 10.56 0 16 0 C16 17.82 16 35.64 16 54 C10.72 54 5.44 54 0 54 C0 36.18 0 18.36 0 0 Z " fill="#FF3D3D" transform="translate(723,220)"/>
<path d="M0 0 C1.75175513 -0.0013566 3.50350997 -0.00313798 5.25526428 -0.00531006 C9.99025896 -0.00985126 14.72523174 -0.00810912 19.46022677 -0.00493097 C24.41872131 -0.00239304 29.37721401 -0.00474864 34.33570862 -0.00631714 C42.65349666 -0.00813345 50.97127581 -0.00574539 59.2890625 -0.00097656 C68.91347254 0.00447755 78.53786143 0.00269292 88.16227096 -0.00280297 C96.4282345 -0.00733449 104.69419165 -0.00798483 112.96015602 -0.0053643 C117.89641388 -0.00380336 122.83266177 -0.00360304 127.76891899 -0.00690079 C132.40233418 -0.00978049 137.03572193 -0.007802 141.66913414 -0.00200653 C143.3727743 -0.00068 145.07641675 -0.00107124 146.780056 -0.0032692 C149.09761918 -0.00598457 151.41509331 -0.00259494 153.73265076 0.00241089 C155.03175101 0.00278791 156.33085127 0.00316494 157.6693182 0.00355339 C160.67016602 0.12939453 160.67016602 0.12939453 162.67016602 1.12939453 C162.34016602 15.31939453 162.01016602 29.50939453 161.67016602 44.12939453 C161.34016602 44.12939453 161.01016602 44.12939453 160.67016602 44.12939453 C160.67016602 30.59939453 160.67016602 17.06939453 160.67016602 3.12939453 C98.63016602 3.12939453 36.59016602 3.12939453 -27.32983398 3.12939453 C-26.99983398 2.46939453 -26.66983398 1.80939453 -26.32983398 1.12939453 C-17.66705122 -0.40656121 -8.77071299 -0.01141867 0 0 Z " fill="#E55553" transform="translate(86.329833984375,54.87060546875)"/>
<path d="M0 0 C62.04 0 124.08 0 188 0 C187.67 0.99 187.34 1.98 187 3 C125.62 2.67 64.24 2.34 1 2 C0.67 1.34 0.34 0.68 0 0 Z " fill="#CC3F3E" transform="translate(59,248)"/>
<path d="M0 0 C1.30195312 0.00322266 2.60390625 0.00644531 3.9453125 0.00976562 C5.32552149 0.01812159 6.70572982 0.02658654 8.0859375 0.03515625 C9.47395676 0.04017124 10.86197772 0.04473415 12.25 0.04882812 C15.65368882 0.06064649 19.05729189 0.07712191 22.4609375 0.09765625 C22.4609375 0.42765625 22.4609375 0.75765625 22.4609375 1.09765625 C13.2209375 1.09765625 3.9809375 1.09765625 -5.5390625 1.09765625 C-5.5390625 34.42765625 -5.5390625 67.75765625 -5.5390625 102.09765625 C3.7009375 102.09765625 12.9409375 102.09765625 22.4609375 102.09765625 C22.4609375 102.42765625 22.4609375 102.75765625 22.4609375 103.09765625 C18.38590956 103.17185836 14.31114358 103.22628195 10.2355957 103.26245117 C8.84945831 103.27753022 7.46336856 103.29799675 6.07739258 103.32397461 C4.08435604 103.36039341 2.09097027 103.37578643 0.09765625 103.390625 C-1.10157471 103.40633545 -2.30080566 103.4220459 -3.53637695 103.43823242 C-6.5390625 103.09765625 -6.5390625 103.09765625 -8.20655537 101.83381939 C-9.84867304 99.69425548 -9.89913253 98.65177028 -9.86186218 95.97846985 C-9.85757202 95.1413446 -9.85328186 94.30421936 -9.84886169 93.44172668 C-9.82872513 92.5267894 -9.80858856 91.61185211 -9.7878418 90.66918945 C-9.77852631 89.70314789 -9.76921082 88.73710632 -9.75961304 87.74179077 C-9.72519479 84.54365271 -9.66930812 81.34626405 -9.61328125 78.1484375 C-9.58525373 75.93313703 -9.55856273 73.71781928 -9.53315735 71.50248718 C-9.46264266 65.66775811 -9.37393318 59.83344086 -9.28149414 53.99902344 C-9.190392 48.04701692 -9.11641405 42.09480063 -9.04101562 36.14257812 C-8.89050289 24.46066748 -8.72077702 12.77912027 -8.5390625 1.09765625 C-5.66887809 -0.33743596 -3.20362527 -0.01392881 0 0 Z " fill="#F16F6E" transform="translate(113.5390625,100.90234375)"/>
<path d="M0 0 C3.1339294 2.9295427 4.80261456 4.79101418 5.5 9.0625 C4.80971428 13.11792863 3.52518853 15.75725379 0.3125 18.375 C-3.26994521 19.34322844 -6.4433311 18.99323813 -10 18 C-13.30583039 15.79611308 -13.88814046 14.41015164 -14.9375 10.5625 C-15.00735492 6.58076972 -14.39706001 5.10730001 -12 2 C-8.39095183 -1.60904817 -4.77597366 -1.46203275 0 0 Z " fill="#FF3D3D" transform="translate(877,256)"/>
<path d="M0 0 C2.47187966 2.85216884 2.56093386 5.15916405 2.625 8.875 C1.34069775 12.08575562 0.32050479 13.44996929 -2.625 15.25 C-6.24534336 16.07280531 -8.78174608 15.78964645 -12.375 14.875 C-15.33826994 12.76951873 -16.20722327 11.40070041 -17.3125 7.9375 C-17.38878017 4.19977184 -16.75728107 2.73373728 -14.375 -0.125 C-9.62043116 -3.03056985 -4.91664293 -2.32893613 0 0 Z " fill="#FF3D3D" transform="translate(970.375,197.125)"/>
<path d="M0 0 C2.47187966 2.85216884 2.56093386 5.15916405 2.625 8.875 C1.34069775 12.08575562 0.32050479 13.44996929 -2.625 15.25 C-6.24534336 16.07280531 -8.78174608 15.78964645 -12.375 14.875 C-15.33826994 12.76951873 -16.20722327 11.40070041 -17.3125 7.9375 C-17.38878017 4.19977184 -16.75728107 2.73373728 -14.375 -0.125 C-9.62043116 -3.03056985 -4.91664293 -2.32893613 0 0 Z " fill="#FF3D3D" transform="translate(738.375,197.125)"/>
<path d="M0 0 C37.95 0 75.9 0 115 0 C115 0.33 115 0.66 115 1 C77.38 1 39.76 1 1 1 C1.33 41.26 1.66 81.52 2 123 C3.65 121.35 5.3 119.7 7 118 C7.66 118.33 8.32 118.66 9 119 C8.07347299 120.17539996 7.13336613 121.34010577 6.1875 122.5 C5.66542969 123.1496875 5.14335938 123.799375 4.60546875 124.46875 C3 126 3 126 0 126 C0 84.42 0 42.84 0 0 Z " fill="#ED3635" transform="translate(91,88)"/>
<path d="M0 0 C40.59 0 81.18 0 123 0 C122.67 0.99 122.34 1.98 122 3 C122 2.34 122 1.68 122 1 C82.07 1 42.14 1 1 1 C1 44.23 1 87.46 1 132 C0.67 132 0.34 132 0 132 C0 88.44 0 44.88 0 0 Z " fill="#FB4342" transform="translate(90,86)"/>
<path d="M0 0 C0.66 0 1.32 0 2 0 C2 0.66 2 1.32 2 2 C2.66 2 3.32 2 4 2 C3.67 2.99 3.34 3.98 3 5 C-37.59 5 -78.18 5 -120 5 C-120 4.34 -120 3.68 -120 3 C-80.07 3 -40.14 3 1 3 C0.505 1.515 0.505 1.515 0 0 Z " fill="#F5D5D7" transform="translate(210,216)"/>
<path d="M0 0 C9.24 0 18.48 0 28 0 C28 16.83 28 33.66 28 51 C27.67 51 27.34 51 27 51 C27 34.5 27 18 27 1 C18.42 1 9.84 1 1 1 C1 33.67 1 66.34 1 100 C8.92 100 16.84 100 25 100 C25 100.33 25 100.66 25 101 C16.75 101 8.5 101 0 101 C0 67.67 0 34.34 0 0 Z " fill="#FEDBDA" transform="translate(108,102)"/>
<path d="M0 0 C39.93 0 79.86 0 121 0 C119.6998749 3.90037529 117.75622928 5.07500029 114.5625 7.625 C113.07943359 8.81996094 113.07943359 8.81996094 111.56640625 10.0390625 C109 12 109 12 107 13 C107.375 10.0625 107.375 10.0625 108 7 C108.66 6.67 109.32 6.34 110 6 C110.99 6.495 110.99 6.495 112 7 C112 6.34 112 5.68 112 5 C112.66 5 113.32 5 114 5 C114 4.01 114 3.02 114 2 C76.38 1.67 38.76 1.34 0 1 C0 0.67 0 0.34 0 0 Z " fill="#E35050" transform="translate(91,87)"/>
<path d="M0 0 C0.99 0.33 1.98 0.66 3 1 C-3.58894312 7.6583667 -10.18589246 14.30866484 -16.79328632 20.94872284 C-19.86090998 24.03202138 -22.92567316 27.11805621 -25.98413086 30.21044922 C-28.93424355 33.19309016 -31.8915642 36.16840347 -34.85408592 39.13871765 C-35.9846549 40.27484189 -37.11257431 41.41360894 -38.23781776 42.55500793 C-39.81093307 44.14981041 -41.39309615 45.7350667 -42.9777832 47.31835938 C-43.87713089 48.2243689 -44.77647858 49.13037842 -45.70307922 50.06384277 C-48 52 -48 52 -51 52 C-51 51.34 -51 50.68 -51 50 C-49.671875 48.6953125 -49.671875 48.6953125 -47.75 47.125 C-42.32322784 42.52046605 -37.38223462 37.464183 -32.38720703 32.40332031 C-30.26775384 30.25924834 -28.13347157 28.13011177 -26 26 C-25.1028125 25.1028125 -24.205625 24.205625 -23.28125 23.28125 C-20.52083333 20.52083333 -17.76041667 17.76041667 -15 15 C-14.15953125 14.14792969 -13.3190625 13.29585938 -12.453125 12.41796875 C-9.38311188 9.39195263 -6.14815921 6.59021071 -2.890625 3.76953125 C-0.92091997 2.13136012 -0.92091997 2.13136012 0 0 Z " fill="#E62F2F" transform="translate(54,250)"/>
<path d="M0 0 C3.08945971 0.43394927 6.04995682 0.96907093 9 2 C10.6875 4.375 10.6875 4.375 12 7 C16.0570167 10.2385095 16.0570167 10.2385095 21 11 C21 12.32 21 13.64 21 15 C23.18116172 16.66607224 23.18116172 16.66607224 25.9375 18 C28.71484375 19.4375 28.71484375 19.4375 31 21 C31.64453125 23.12890625 31.64453125 23.12890625 32 25 C33.99541868 25.68025637 35.99617991 26.34490497 38 27 C41.19688467 29.6995915 43.52436589 31.71929301 44 36 C40.05431058 34.34166677 37.06596723 31.65273158 33.875 28.875 C32.7026986 27.86877055 31.52951492 26.86356814 30.35546875 25.859375 C29.78103027 25.36759766 29.2065918 24.87582031 28.61474609 24.36914062 C26.50441011 22.57979013 24.35368593 20.84617999 22.1875 19.125 C17.59215519 15.47307035 13.00748846 11.80860521 8.4375 8.125 C7.72166748 7.55281738 7.00583496 6.98063477 6.26831055 6.39111328 C5.26731323 5.58262939 5.26731323 5.58262939 4.24609375 4.7578125 C3.64466553 4.2745752 3.0432373 3.79133789 2.42358398 3.29345703 C1 2 1 2 0 0 Z " fill="#CD4F52" transform="translate(193,163)"/>
<path d="M0 0 C0.66 0 1.32 0 2 0 C3.23311618 4.89323785 3.25936531 9.77309456 3.38671875 14.7890625 C3.42500542 16.19942276 3.42500542 16.19942276 3.46406555 17.63827515 C3.51593994 19.62011736 3.5653823 21.60202453 3.61254883 23.58398438 C3.68741333 26.62148339 3.7780095 29.65826353 3.86914062 32.6953125 C3.91763389 34.62237174 3.96519209 36.54945478 4.01171875 38.4765625 C4.05530769 39.84066757 4.05530769 39.84066757 4.09977722 41.23233032 C4.11672134 42.0768576 4.13366547 42.92138489 4.15112305 43.79150391 C4.17031296 44.53365143 4.18950287 45.27579895 4.20927429 46.04043579 C4 48 4 48 2 51 C1.34 51 0.68 51 0 51 C0 34.17 0 17.34 0 0 Z " fill="#E35D5D" transform="translate(136,102)"/>
<path d="M0 0 C1.875 0.6875 1.875 0.6875 4 2 C4.99 4.475 4.99 4.475 6 7 C-33.93 7 -73.86 7 -115 7 C-115 6.67 -115 6.34 -115 6 C-75.73 6 -36.46 6 4 6 C2.68 4.02 1.36 2.04 0 0 Z " fill="#FB4342" transform="translate(205,212)"/>
<path d="M0 0 C1.7074998 1.28062485 3.37373596 2.61767557 5 4 C5 4.66 5 5.32 5 6 C-33.94 6 -72.88 6 -113 6 C-113 5.67 -113 5.34 -113 5 C-56.57 4.505 -56.57 4.505 1 4 C0.505 2.02 0.505 2.02 0 0 Z " fill="#C73938" transform="translate(204,212)"/>
<path d="M0 0 C0.33 0 0.66 0 1 0 C1.07408447 6.21131774 1.12857114 12.42237905 1.16479492 18.6340332 C1.1798936 20.74768554 1.20037426 22.86130648 1.22631836 24.97485352 C1.26265397 28.01065815 1.27971544 31.04604906 1.29296875 34.08203125 C1.30845261 35.02899368 1.32393646 35.97595612 1.33988953 36.95161438 C1.34022942 38.27264412 1.34022942 38.27264412 1.34057617 39.62036133 C1.34723801 40.39535477 1.35389984 41.17034821 1.36076355 41.96882629 C0.90506702 44.5344924 -0.00834969 45.37683249 -2 47 C-3.14295211 47.70655221 -4.31092687 48.37417204 -5.5 49 C-8.05767048 50.40590766 -10.08677622 51.7491485 -12 54 C-12.66 53.67 -13.32 53.34 -14 53 C-12.23885299 50.99067777 -10.46713537 48.99283255 -8.6875 47 C-8.18798828 46.42765625 -7.68847656 45.8553125 -7.17382812 45.265625 C-5.84401939 43.78610269 -4.42612877 42.38691538 -3 41 C-2.01 41 -1.02 41 0 41 C0 27.47 0 13.94 0 0 Z " fill="#C93D3C" transform="translate(248,58)"/>
<path d="M0 0 C4.99913315 1.85682089 8.98567812 3.47851719 12 8 C12.24050903 9.99320984 12.24050903 9.99320984 12.22705078 12.2878418 C12.22682419 13.57884041 12.22682419 13.57884041 12.22659302 14.8959198 C12.21627045 15.82100845 12.20594788 16.74609711 12.1953125 17.69921875 C12.1924826 18.64940384 12.18965271 19.59958893 12.18673706 20.5785675 C12.17553715 23.61500615 12.15043288 26.65115042 12.125 29.6875 C12.11496996 31.74543845 12.10584415 33.80338152 12.09765625 35.86132812 C12.07559842 40.9076656 12.04106982 45.95378288 12 51 C11.67 51 11.34 51 11 51 C11.00636475 49.74864258 11.01272949 48.49728516 11.01928711 47.20800781 C11.03372163 42.56331347 11.00240043 37.9198569 10.95727539 33.27539062 C10.94413889 31.26566783 10.94339848 29.25582411 10.95532227 27.24609375 C10.97031764 24.35555669 10.94068433 21.46838603 10.90234375 18.578125 C10.91659897 17.68007141 10.93085419 16.78201782 10.94554138 15.85675049 C10.88808166 13.37887232 10.78200585 11.35353719 10 9 C7.79708466 7.03277523 5.7557961 6.21624204 3 5 C1.0625 2.25 1.0625 2.25 0 0 Z " fill="#D1484B" transform="translate(236,197)"/>
<path d="M0 0 C0.33 0.66 0.66 1.32 1 2 C-0.65 3.98 -2.3 5.96 -4 8 C-4.99 7.67 -5.98 7.34 -7 7 C-7 23.17 -7 39.34 -7 56 C-7.99 55.67 -8.98 55.34 -10 55 C-9.34 55 -8.68 55 -8 55 C-8 38.83 -8 22.66 -8 6 C-7.01 6 -6.02 6 -5 6 C-4.67 5.01 -4.34 4.02 -4 3 C-1.9375 1.3125 -1.9375 1.3125 0 0 Z " fill="#FEDBDA" transform="translate(143,147)"/>
<path d="M0 0 C0.33 0.66 0.66 1.32 1 2 C-1.74803193 8.37043765 -6.05381731 12.45033951 -12 16 C-14.78515625 16.6953125 -14.78515625 16.6953125 -17 17 C-16.07038578 15.84775972 -15.1309875 14.70340824 -14.1875 13.5625 C-13.66542969 12.92441406 -13.14335937 12.28632813 -12.60546875 11.62890625 C-11 10 -11 10 -8 9 C-8 8.34 -8 7.68 -8 7 C-6.25 5.2734375 -6.25 5.2734375 -4 3.375 C-3.2575 2.74335938 -2.515 2.11171875 -1.75 1.4609375 C-0.88375 0.73777344 -0.88375 0.73777344 0 0 Z " fill="#CF5453" transform="translate(212,130)"/>
</svg>
